# xmcd CD database file
#
# Track frame offsets:
#	150
#	7852
#	20811
#	37535
#	51672
#	73464
#	87647
#	100983
#	118494
#	131362
#	150763
#	169255
#
# Disc length: 2483 seconds
#
# Revision: 0
# Processed by: cddbd v1.5.1PL0 Copyright (c) Steve Scherf et al.
# Submitted via: CDex 1.51
#
DISCID=9f09b10c
DTITLE=渡辺俊幸 - NHKスペシャル ローマ帝国
DYEAR=2004
DGENRE=Soundtrack
TTITLE0=遥かなるローマ (オープニングメインテーマ)
TTITLE1=ローマの北
TTITLE2=豊かなるローマ
TTITLE3=最強の軍事国家
TTITLE4=宿命
TTITLE5=繁栄の礎
TTITLE6=残された謎 I
TTITLE7=広がり続ける帝国
TTITLE8=崩壊に向かう巨大国家
TTITLE9=残された謎 II
TTITLE10=市民の退廃
TTITLE11=遥かなるローマ (メインテーマ)
EXTD=YEAR: 2004
EXTT0=
EXTT1=
EXTT2=
EXTT3=
EXTT4=
EXTT5=
EXTT6=
EXTT7=
EXTT8=
EXTT9=
EXTT10=
EXTT11=
PLAYORDER=
